<?xml version="1.0"?>
<svg xmlns="http://www.w3.org/2000/svg" width="173" height="173" viewBox="0 0 173 173" fill="none">
<path fill-rule="evenodd" clip-rule="evenodd" d="M86.4548 172.096C133.798 172.096 172.177 133.716 172.177 86.3732C172.177 39.0301 133.798 0.650879 86.4548 0.650879C39.1116 0.650879 0.732422 39.0301 0.732422 86.3732C0.732422 133.716 39.1116 172.096 86.4548 172.096Z" fill="#2F3139"/>
<path fill-rule="evenodd" clip-rule="evenodd" d="M46.6761 87.2914L64.5294 69.4381L58.4447 63.3534L80.9725 64.2466L81.8657 86.7744L75.781 80.6897L57.9277 98.5431L46.6761 87.2914Z" fill="#FED831"/>
<path fill-rule="evenodd" clip-rule="evenodd" d="M126.907 77.7851L92.8556 111.837L98.9403 117.922L76.4125 117.028L75.5193 94.5005L81.604 100.585L115.656 66.5335L126.907 77.7851Z" fill="#FED831"/>
</svg>
