<?xml version="1.0"?>
<svg xmlns="http://www.w3.org/2000/svg" width="73" height="83" viewBox="0 0 73 83" fill="none">
<path d="M41.3 80.2125L70.6 50.9125C73.3 48.2125 73.3 43.7125 70.6 41.0125C67.9 38.3125 63.4 38.3125 60.7 41.0125L43.3 58.3125L43.3 7C43.3 3.1 40.2 -1.7572e-06 36.3 -1.58672e-06C32.4 -1.41625e-06 29.3 3.1 29.3 7L29.3 58.3125L12 41.0125C9.3 38.3125 4.8 38.3125 2.1 41.0125C0.699999 42.4125 -1.6654e-06 44.2125 -1.58672e-06 46.0125C-1.50804e-06 47.8125 0.699999 49.6125 2.1 51.0125L31.3 80.2125C32.6 81.5125 34.4 82.3125 36.3 82.3125C38.2 82.3125 40 81.6125 41.3 80.2125Z" fill="#FFD600"/>
</svg>
