<?xml version="1.0"?>
<svg xmlns="http://www.w3.org/2000/svg" width="172" height="172" viewBox="0 0 172 172" fill="none">
<path fill-rule="evenodd" clip-rule="evenodd" d="M85.7224 171.445C133.066 171.445 171.445 133.066 171.445 85.7224C171.445 38.3792 133.066 0 85.7224 0C38.3792 0 0 38.3792 0 85.7224C0 133.066 38.3792 171.445 85.7224 171.445Z" fill="#2F3139"/>
<circle cx="87" cy="87" r="36" fill="#FED831"/>
<path fill-rule="evenodd" clip-rule="evenodd" d="M86.841 51.0615C67.0869 51.0615 51.0613 67.0871 51.0613 86.8412C51.0613 106.595 67.0869 122.621 86.841 122.621C106.595 122.621 122.621 106.595 122.621 86.8412C122.621 67.0871 106.595 51.0615 86.841 51.0615ZM84.9774 107.922V93.0795H75.4409C74.1144 93.0795 73.2181 91.6454 73.8634 90.4623L87.0568 64.7568C87.8814 63.0718 90.4268 63.6813 90.4268 65.5814V80.6032H99.5331C100.86 80.6032 101.72 82.0014 101.146 83.1845L88.3833 108.711C87.5228 110.432 84.9774 109.822 84.9774 107.922V107.922Z" fill="#FED831"/>
<path d="M68 74.2438C68 71.7789 68.8153 69.7887 70.4459 68.2732C72.0766 66.7577 74.2631 66 77.0055 66C79.785 66 81.9807 66.7577 83.5928 68.2732C85.2049 69.7704 86.011 71.8063 86.011 74.3808V76.3527C86.011 78.8176 85.2049 80.7987 83.5928 82.2959C81.9807 83.7931 79.8035 84.5417 77.0611 84.5417C74.3372 84.5417 72.1414 83.8023 70.4737 82.3233C68.8246 80.8261 68 78.7811 68 76.1884V74.2438ZM74.0315 76.3527C74.0315 77.3022 74.3001 78.0782 74.8375 78.6807C75.3749 79.265 76.1161 79.5571 77.0611 79.5571C79.0067 79.5571 79.9795 78.3338 79.9795 75.8871V74.2438C79.9795 73.2944 79.7201 72.5184 79.2013 71.9158C78.6824 71.295 77.9505 70.9846 77.0055 70.9846C76.0975 70.9846 75.3749 71.2859 74.8375 71.8884C74.3001 72.4727 74.0315 73.2761 74.0315 74.2986V76.3527ZM87.234 96.6747C87.234 94.1915 88.0493 92.2013 89.6799 90.7041C91.329 89.2069 93.5156 88.4582 96.2394 88.4582C99.0004 88.4582 101.196 89.1977 102.827 90.6767C104.457 92.1556 105.273 94.2189 105.273 96.8664V98.7836C105.273 101.267 104.467 103.257 102.855 104.754C101.242 106.251 99.056 107 96.295 107C93.5711 107 91.3754 106.261 89.7077 104.782C88.0585 103.284 87.234 101.239 87.234 98.6466V96.6747ZM93.2376 98.7836C93.2376 99.6417 93.5341 100.399 94.127 101.057C94.72 101.696 95.4427 102.015 96.295 102.015C98.0924 102.015 99.0652 101.175 99.2135 99.4957L99.2413 96.6747C99.2413 95.707 98.9726 94.931 98.4352 94.3467C97.8979 93.7442 97.1659 93.4429 96.2394 93.4429C95.35 93.4429 94.6366 93.7259 94.0992 94.2919C93.5619 94.8397 93.2747 95.5883 93.2376 96.5377V98.7836ZM78.8399 103.467L74.4762 101.303L94.2382 70.1356L98.602 72.2993L78.8399 103.467Z" fill="#2F3139"/>
</svg>
